/* XPM */
static char *_b33103731c24e00c2b9a1c84e38a9f6mvfZN91zoUF4ZWg9[] = {
/* columns rows colors chars-per-pixel */
"64 64 55 1 ",
"  c #060607",
". c #070708",
"X c #070709",
"o c #08070A",
"O c #07080A",
"+ c #07080B",
"@ c #07090B",
"# c #08080B",
"$ c #08090B",
"% c #090A0C",
"& c #0A0B0C",
"* c #0B0C0F",
"= c #0C0C0F",
"- c #0D0D0F",
"; c #0B0C10",
": c #0B0D10",
"> c #0C0C10",
", c #0D0F11",
"< c #0F0F13",
"1 c #0E1012",
"2 c #0F1014",
"3 c #101013",
"4 c #101113",
"5 c #101014",
"6 c #101114",
"7 c #131317",
"8 c #121416",
"9 c #141417",
"0 c #131318",
"q c #141318",
"w c #131518",
"e c #161519",
"r c #141619",
"t c #17161B",
"y c #18171C",
"u c #17181B",
"i c #16181C",
"p c #18181B",
"a c #18191C",
"s c #191B1F",
"d c #1B1A1F",
"f c #1A1C1F",
"g c #1B1B20",
"h c #1B1C21",
"j c #1C1C21",
"k c #1D1D22",
"l c #1E1E24",
"z c #1F1F24",
"x c #1E2024",
"c c #1F2025",
"v c #212126",
"b c #222327",
"n c #222328",
"m c #232429",
"M c #24242A",
/* pixels */
"X$OX%O%>>$- X%:>%266>6qr4-6666>6a4qq6>66rrr>r>>>$%%->$&O:%%r#oX ",
"X%%Xo%X%=-%XXO6>%->r166r>6ar06>iar6666666qq3r4>3%>%5>%%$$$%6o%XX",
"X%%X%;O%-%$-%%>w-q6-r66655ar6t%wrar6r66qraq3a666%;%64%$$%%-a$%X ",
"X%%X%&%O6=-%$>6>->4r0<ryr6arrt%qqrqrr6qr9aqrv666>>$r1%-$%%%aoXXX",
"X%%%>6-X4>&>%>r1>rq4r6qtq5aa5a%waara6rry>yrqq666>%>6y>:>%>>a%XXX",
"$%:X>>->8>>-:>r&>6rtqrqry6gawg:yaaatayra6rq6jrq6r6>r>%2&:&%i%%XX",
"X>:X&1%>61>>>>6>-69qrrrtqyka6j>atjkttrta6rrrrqrr66>r6%6>>%>l#%XX",
"o>>X>4%->&1>>>r6-r49qqyy6rkaar>>qaatjrdtqrrryq66<6rt6>1>%%>>#XXX",
"$>:%%-%>>21>>>68%5qrtrrd:igkar-atktjialaryr5rr661-1u6->-%>-r>o$ ",
"$%>%%-%1:11>&1266r6qatry6wklar2aarjatwyrrratyrqq>>-916>>>>>r6%Xo",
"o>$%-&O>>:&1>666qrqyrttyraltak2hhkryatarrayrarqr6>66>66>->-6-%oX",
"$-%%>%->1:2>>6666rrrqrajaajraj2hlhtkgyyaarajja6r>684>1>>-:$r:%XX",
"$-X%>1%41>66186666raitaaaalrlt6ghhukauryaqrtaawr866r%>46>>=r>%%%",
"X->%:>%16>66>uw6>rrritygkgnatg2aihikkilaytwtga0q6w6qr-6>4>>a-%X%",
"$>-X-&:>1%2:&6u24qrrgwgaailgta6akkifuaalrtargarq6r6rr61>->->%OXX",
"%$Xo>>$>>%26>6266r6rw>aaaggrya0aharkaakryry6aa6y6r86>%1>%>%r;%OX",
"%%X%:>%>%&>>>r>6w63ryryyagrara<6latjjraqyrrqaarr6r656>6-&>%r>$$o",
"XoXX%;>61>w1$8-66rqrjyjayry6rj0ygarlrrkrrqyqjyqy6r6>>16>>>-6>$oo",
"XXOX%1%<->>6&4>66rrrttjrjqaqaa>rhtykkrg0rjgrkaqrqr3-6>>;$>$6%&O ",
"XX%%->>>%1>1>4166r6rt3jykrrryj6akaaakajryaa6jr6q>r4>6>6%$1&9>$X ",
"$%$%$%&>4>6$->qr>yrtiraaa0kaahrilgihjryayakrgr0q=6166>6%6>:y:%XX",
"X$-O$-%212>-==qr6rrywtaarrvufa8kchhaaatajyjrkrrr161r6>%;1>%6$&O ",
"X$>&%6>-2:>1->6a6arrgiatraljjk8hcvkakiaaajarlryr165ri<:::&1h%>O ",
"$%>%%1%&u161>>rr6rrgatghkickak6hhhhkltjkkjjaMayar6>tr-2:>>>g%%XX",
"X->-16>%66>6>6y>5yaraggggrvv6c6akcxxukkcrajayyyi646ah>56>>1f%%OX",
"$$>$1>61r66>3ra>5rgjakiagiclac6kccckkhicraajnaaaar6a8>6>16>i-%%X",
"%1>$:6:1r6866qr65yyyaagaahvvic6kkcmkhfkcaagagaairqra6>666>6k:%%X",
"$1>$11:14>q4>5yr6araiihkihvckh18hvxxvfxhgiagaatt6rrhr6r6>-26%%%X",
"$>>%>>%15>6656rr>rrakigkrkvmka6kcckcccvkakgrggrrr5qtt1w>%6>a<%%X",
"$$>=>>&26666>66qrywtjkaaitcnkh8hxcccfffkaaghaayy656w60>6121r<%X%",
"$4X$>>-166>636r6ryygagggakmkkc8kcmkkkhhiiagtkaaaq6rr688>>1:6>>%X",
"$-$=----6>6466rr6ayyyygkkkcihcwkbvuvcuhkkikklk6a1rq61222:<>i>%XX",
"%>X--4:66>r66q6q06yygajaghninawlccfvhukharralattwr6r-246>4-w<>%%",
"$=-$--:16666>yrr<ryatagjhkmhkk6gxckkkfvijtayjjtr0rqra>644>6a>%O$",
"$>>$%>&:5%66>ra62rrrkwjjhgnlag6kxbuhhkhcaratggrtqqqtr62->6>1-$OX",
"-%$&>>->>%66>6660qrrr>aaikhaagraxuuxhuhryyarga6arrr6>:2>&>%a%$$O",
"%%X%>1&:%>6>>r>6wr6rayjyhkiatg2rlgaghrfryrrraryr6q66616>>>%r>%oo",
"XXXX%>>16>6<%6>6260tayaaiaaryjrakaakurfuqry6kyraq662>66%-;-6>$ o",
"XXXX%>%1>>10%6360r6rrraraqaqaj>rhiykkrarqjarkrrqrq>>4>6>%>$4$$$X",
"XX+%->>>%1>>:<>66q6raqaykrrrrk6ykiyrkayrrjy6ar64>r6>>>6&%6$r>$XX",
"X%%%%%=>>11%%>6r>rrrqqaay6jaaawrkaaharyradara94r&6621:6O>>&a:O% ",
"o%%X%;%>11>&->r666qyqrrrqrkyai6kkuruyrqatrarkqq8:6>86>&O>>:1%%X ",
"X%%%%3%;2>->%16r>aqryyyqrrkaaj>ajkararriaarrkrqq121rw>>->>-l$:XX",
"X%>%%>%%r>>-%>w6666arraaarkayj>atjaaa9igadtrvtrt62&u8>1>>>&a$$XX",
"O--->6>%6>>4%6r6-rrqrryyrqkk=j>yahik6aia>attrrtr2>1ra>1>->>a%ooo",
"O$-$>>>>r>1>>6a>4qyaytrtyrjarj6aghakaatg6artktrrr66r6>6>>>>r%%%X",
"O&>$>6>>664>>66>-4rqryrtrylyrj6aihkaattgrttrt9rrr66a1&6>1->l%%XX",
"%>>$>>&>>>1%=36q>r6rr6ya6rkjry>>ratagratqrrta946666t8>2--$:<+%XX",
"$-&%%>%>>61>>>68$36rtqta>tkkyr>yratayykaqyr6tr4q6->r8>6:%:>r>$$O",
"Xo>%O-O>>>1>&>164qq6rarr6rakrr6rytaarrrrrqyarqq6%>>611&>>>>8>%oo",
"%>%%>>$>1>%>:11>6r4rqrryqykraa>yajrttqy6qrr6aq6r2:66->>-%>>6%$$ ",
"O%+%%%%&-&1>&2664r6q44aarra6ry6ajyqaaqqrrqyaar-r%<56->>>%>$r%$O ",
"o%XX=>X>:&4>>6>2>>6rrrrrqrj4aq3rraqarrqqr64raq4r1216>%>1%-$r>%$$",
"$>-$>&$>:>1>%w2>-6r9q6qyrtkt99>qryryr6aqq4q6yq>6>2668%>>>%>a%%Xo",
"o%%X%>%%:$::O-6>-643r>ryq6ar46-rrj5rqrra4qq4rr661>>66%>%%>$>$XXX",
"$$$X%%$%%X&-O1:1>>36>>4rqqr46r;6r5>rq6r>4r6>r9>616>1>%>%$%orXXXX",
"XXXo%%$%XX;%X2%>>>-681rrr8113r%>y56rr>r>66418666->>%>%>Xo%or%oXX",
"XXXX$%o:%%>:X>X:%1>6826r46>-=8><r6>r5>r3>64>r6>6:>:%%%:%$%o3$oXX",
"XXXXX>o-%%%>%%%%>1>>2>w64>6->6o>q6>rr>q->a6>r6>>>>%o>%%oo%$3XXX ",
"XXXo%%$%X%O%%%%%>>&:8%666->>66$>6>6>6>4=>r6%r=--%1%o%%>X$%o6OXX ",
"XXOXo%#>-%$ XX%>O>114>6r6%6644-4u64861>16r6>1>&>$%%%=o$X%%%r%XXX",
"X%%Xo%XX%%& Xo>>%:>2>>>6%>t>6>%2w6>>>>>1666>r:>>X$%>%o$X#%%>XXXX",
"X%Oo%%%o&%$$O$:>O6>>4>>6&>r616$64u6>>>>64r6>r-1>O%%>>%XXoo%yX$XX",
"XO%XX%Xo6$$$ %>>%&-61>>r2>w2>4o>:1169>161a1>a1>>%%O2>%%XX%%rXXXX"
};
