/* XPM */
static char *cbaae30408bd4a43a293310f2a609ae572yIxZyjn1fcE3ug[] = {
/* columns rows colors chars-per-pixel */
"64 64 239 2 ",
"   c None",
".  c #090101",
"X  c #160704",
"o  c #3D0501",
"O  c #31160D",
"+  c #31132C",
"@  c #3B2D30",
"#  c #000D3D",
"$  c #4A0901",
"%  c #550904",
"&  c #541605",
"*  c #4B1719",
"=  c #770001",
"-  c #6D0E08",
";  c #5B2502",
":  c #592603",
">  c #47261B",
",  c #562716",
"<  c #642904",
"1  c #6B3005",
"2  c #78390B",
"3  c #6F3613",
"4  c #53322D",
"5  c #7A332A",
"6  c #7E0320",
"7  c #7A4118",
"8  c #5E402E",
"9  c #714732",
"0  c #001349",
"q  c #001D5A",
"w  c #000844",
"e  c #0B2352",
"r  c #343353",
"t  c #00236A",
"y  c #012768",
"u  c #002674",
"i  c #002A74",
"p  c #012C7B",
"a  c #02307E",
"s  c #15306C",
"d  c #2E2064",
"f  c #691A4D",
"g  c #144D7A",
"h  c #366171",
"j  c #52444C",
"k  c #735646",
"l  c #4D5172",
"z  c #687063",
"x  c #656B5E",
"c  c #880305",
"v  c #990003",
"b  c #8D1414",
"n  c #A40002",
"m  c #AC0003",
"M  c #AA040A",
"N  c #B40003",
"B  c #BA0004",
"V  c #BA0209",
"C  c #B10616",
"Z  c #942D2B",
"A  c #A82724",
"S  c #9D2117",
"D  c #C20005",
"F  c #CB0006",
"G  c #C6010A",
"H  c #CC0009",
"J  c #D40006",
"K  c #D60009",
"L  c #DB0009",
"P  c #D20818",
"I  c #E3000A",
"U  c #EA000C",
"Y  c #E30006",
"T  c #F2000D",
"R  c #F8000C",
"E  c #E90213",
"W  c #F40011",
"Q  c #FB0012",
"!  c #F60118",
"~  c #CA122E",
"^  c #FB0A24",
"/  c #FD1730",
"(  c #F2293B",
")  c #864719",
"_  c #97511C",
"`  c #8C4713",
"'  c #A25A1F",
"]  c #854925",
"[  c #895127",
"{  c #965628",
"}  c #824A38",
"|  c #92503B",
" . c #A35C29",
".. c #A8583C",
"X. c #AD622B",
"o. c #B5682C",
"O. c #AA6433",
"+. c #B46932",
"@. c #BC723C",
"#. c #9A643C",
"$. c #C37436",
"%. c #96194F",
"&. c #A3294D",
"*. c #E63242",
"=. c #DD3743",
"-. c #945A52",
";. c #A55C42",
":. c #A84045",
">. c #94664F",
",. c #B5684A",
"<. c #B16D52",
"1. c #B97558",
"2. c #AA6D54",
"3. c #AE7D65",
"4. c #F04D52",
"5. c #C47844",
"6. c #C67B5A",
"7. c #D77452",
"8. c #F5665A",
"9. c #F35C66",
"0. c #C97E61",
"q. c #DB636B",
"w. c #F66C76",
"e. c #6A8D6C",
"r. c #B7C033",
"t. c #F8E900",
"y. c #CBD427",
"u. c #F3DF00",
"i. c #91A84C",
"p. c #B28C76",
"a. c #D5844B",
"s. c #D98955",
"d. c #CC8146",
"f. c #E79459",
"g. c #E38E50",
"h. c #C98567",
"j. c #D48B6A",
"k. c #D89273",
"l. c #CD9574",
"z. c #E59A78",
"x. c #F09B61",
"c. c #EAA17E",
"v. c #DFA07E",
"b. c #969323",
"n. c #002D82",
"m. c #013285",
"M. c #01338B",
"N. c #01398F",
"B. c #003592",
"V. c #013B95",
"C. c #003B9C",
"Z. c #003798",
"A. c #1B388D",
"S. c #333B95",
"D. c #003DA4",
"F. c #003FA8",
"G. c #253FA1",
"H. c #4E3991",
"J. c #06449B",
"K. c #1E529B",
"L. c #324E8B",
"P. c #0042AA",
"I. c #0147A9",
"U. c #0045B4",
"Y. c #004BB3",
"T. c #004CBB",
"R. c #0B4DB4",
"E. c #0153BC",
"W. c #0051B6",
"Q. c #1458AC",
"!. c #285DA8",
"~. c #2C6DA8",
"^. c #4F6892",
"/. c #5B78A6",
"(. c #004EC2",
"). c #0054C4",
"_. c #0055CB",
"`. c #015CCD",
"'. c #005CC6",
"]. c #005CD2",
"[. c #005ED9",
"{. c #0056D1",
"}. c #0464CC",
"|. c #0061D4",
" X c #0063DC",
".X c #0065E3",
"XX c #016BE6",
"oX c #006CEB",
"OX c #0371ED",
"+X c #0272F1",
"@X c #006EF0",
"#X c #A37987",
"$X c #FD7380",
"%X c #2E839C",
"&X c #708788",
"*X c #6F92AD",
"=X c #4A909E",
"-X c #6C92CE",
";X c #99989A",
":X c #928A8A",
">X c #B69284",
",X c #B6B5B5",
"<X c #ADA8A8",
"1X c #AAA39B",
"2X c #FA8B93",
"3X c #DAAF8C",
"4X c #ECA985",
"5X c #F9B38C",
"6X c #E9B594",
"7X c #F5BC97",
"8X c #EDAF89",
"9X c #C7BAB9",
"0X c #C9ABAC",
"qX c #F1B6B5",
"wX c #E49BA1",
"eX c #F1C69D",
"rX c #F2C6A6",
"tX c #FAD6AB",
"yX c #FCD9B2",
"uX c #ECCDA8",
"iX c #FEE4BC",
"pX c #AAB6CD",
"aX c #FFBDC3",
"sX c #B6CCE1",
"dX c #A7D1DA",
"fX c #CBCBCB",
"gX c #C8C6CA",
"hX c #DBD9D9",
"jX c #D6C9CB",
"kX c #EDD6D5",
"lX c #FFE5C2",
"zX c #F7EBCD",
"xX c #CBE8F1",
"cX c #E8E7E7",
"vX c #F3EAE9",
"bX c #F3F3F3",
"nX c #F9F4F4",
"mX c #FBFBFB",
"MX c #E9EBF0",
/* pixels */
"                                                                                                                                ",
"                                                                                                                                ",
"                                                                                                                                ",
"                                                                                                                                ",
"                                                                                                                                ",
"                                                                                                                                ",
"                                                                      Q Q Q W                                                   ",
"                                                                  Q Q ^ / ! Q T E L K                                           ",
"                                                              Q Q / 2X2XkXqX$X/ R I K G                                         ",
"                                        bXvXjX              Q Q ^ qX2X*.9.w.2XqX^ Y L F D V                                     ",
"                                      nXnXjX<X            Q Q Q ( 2Xw.kX2X$X*.vX4.Y L J D B N                                   ",
"                    bXbXbXbXbX    bXmXnXcX9X            L I I I ! 4.2XkXvXwX*.qX( U L J F D N                                   ",
"                bXbXbXMXbXbXvXbXnXmXmXnXkX9X          V N m n v M n V P =.q.q.*.T U L K F D B N                                 ",
"                bXbXMXbXMXbXbXbXnXnXnXvXhX0X        V N m v = $ % c c c v B F Y U U Y K F D N N m                               ",
"                hXbXbXmXmXmXmXmXnXnXvXvXkX9X<X      V B n b > , O -.;.] Z b c N F K L J F D B m m                               ",
"                  hXhXcXcXbXbXbXvXnXcX9X>X-.-.          S 3XeXeX3.3XrX6Xh.9 o o c D D F D B N m m M                             ",
"                      fXfXgXfXhXcXjX>XZ v B V         8Xl.iXzXxXdXtXyXtX6X2.2.} , = N B N N N m m m                             ",
"                          ,X,XhXgX-.c G E T Y K     5Xs.3XiXxX=X&XyXyXeXuXzXhXuXl.9 A N m m m m m N N                           ",
"                              ,X:X- N W W Q T U L   eXs.eXiXzX1X>XtXtX7XvXdX=X-X7X4X1.| b c n n m m N V                         ",
"                                    V I W Q R T T P ;.p.iXzXzXlXtXeX6XuXxX%Xe h 7X4Xk.1.3 $ = v v m N V                         ",
"                                    G G I W Q R R P , p.iXlXyXyXeX6Xz.6XdXJ.# &X7X4X0...& $ % b A N B                           ",
"                                      G F U Q Q R 8.k #.7X6X7X6Xk.k.j.1.>X:X:X3X8X4X,.- & & #.k.z.7.C                           ",
"                                        G J U W R 8.p.O -.h.j.j.h.h.<.> O 8 8 O >.4Xh.< % Z ,.h.z.c.                            ",
"                                          G K E T ( 5Xp.4 > 9 k 9 4 X . . . X O 1.4Xj.{ 3 ;...j.5X4X                            ",
"                                            G K U E 8.eX5X9 @ 4 X X O X X 4 2.j.k.j.h.1.<.<.1.8X5X                              ",
"                                              F L I U 4.7X>X@ 4 @ 4 j -.<.k.4Xk.h.h.h.,.,.h.j.4X                                ",
"                                                J Y P %.#X7X3.&.Z 5 k 0.j.j.0.6.6.6.;.& &                                       ",
"                                                G %.L.A.f 7.4X4X4Xj.0.0.6.1.<.,.;.5 $ $ $                                       ",
"                                                ^._.A.C Q G A ;.+...-.5 4 4 + * % %                                             ",
"                                              t.e._.).H.%.~ C v 6 d p n.u + c M D G H                                           ",
"                                            r.i.~..X.X X{.R.G.S.L.R.).(.d G W Q Q T U L G                                       ",
"                                            }.}.oXoXXX.X[.{._.&Xy.y.z Z.M W W Q Q Q R W I H G                                   ",
"                                          XXoXOXoX@XoXoX.X[.).i.t.u.b.s C L J L E W Q Q T U F V                                 ",
"                                        OXOXOXOX+X@X@XoX.X X_.Q.e.x g B.f G m m G K T Q Q W L B M                               ",
"                                        XXOXOX+X+X+X@XoX.X.X[._.P.U.D.Z.n.6 A Z V U Q Q Q T K N m                               ",
"                                         XXXXXoX@XoXoX.X.X.X[.{.).T.U.D.M.l jXwX! Q Q T U K D m m                               ",
"                                         X XXXXX.X.X.X X.X[.].{.(.(.(.~.pXcXbXkX( T U L F B N m                                 ",
"                                        |.|. X X.X[.[.[.[.].{.(.(.(.-XMXmXmXbXMX0X~ D B m m M                                   ",
"                                        `.`.`.`.{.{.{.].]._.(.T.R.-XMXbXmXmXmXMXcX,X:.M M                                       ",
"                                        E.E.T.).).(._.).(.(.U.U.R.sXbXbXmXmXmXcXfX,X<X:X                                        ",
"                                          W.W.Y.U.U.U.U.U.P.F.D.Z.pXnXnXbXmXbXhX9X;X;X                                          ",
"                                          E.Y.I.P.D.D.D.D.D.Z.M.n.^.hXbXbXbXcXgX,X;X                                            ",
"                                            E.Y.P.V.B.B.B.M.n.n.p a ^.pXhXvXfX,X;X&X                                            ",
"                                            }.'.W.V.p u u u u n.n.M.Z.!.*X<X<X;X^.a                                             ",
"                                            }.`.'.E.P.a q 0 0 t B.P.Y.T.I.J.L.s y t                                             ",
"                                              ].`.'.Y.I.m.t 0 # M.R.).`.`.E.U.M.u t i                                           ",
"                                              }.].`.E.Y.V.m.t q q F.).].|.|.'.T.F.M.u p                                         ",
"                                              ].].].).Y.J.N.p y t N.T.`.|.|.}.).R.P.M.u                                         ",
"                                                |.|.).E.I.V.m.i y y Y.).|. X|.}.).U.F.B.m.                                      ",
"                                                }.].'.).Y.P.m.i t y   T.`. X X|.`.(.U.F.B.                                      ",
"                                                ].|.].'.T.I.V.p i y   Y.).]. X X]._.T.U.D.N.                                    ",
"                                                  ].].`.E.Y.J.m.i t y   Y.]. X X X]._.T.P.Z.                                    ",
"                                                !. X.X.X{.).Y.V.m.i y   U.). X.X.X X{.(.U.F.Z.                                  ",
"                                          +.+.+.#.z ~.}.[.{.E.I.N.m.p   R.).|..X.X.X[.{.(.U.Z.M.                                ",
"                                        X.@.s.s.5.$.O.k l K.R.Y.P.V.a y   T.{.[.].`.!.L.l j j r                                 ",
"                                        X.5.s.f.s.5.O. .{ [ 9 j r r @ >   P.J.L.x >.,.5.$.$.o.' )                               ",
"                                        _ O.5.5.@.X.{ ) ) 7 2 2 2 1 : :   9 )  .$.$.g.f.g.g.$.o._ 2                             ",
"                                        7 ] { { { ) 7 1 1 < : : : : :     2 ` _ +.a.x.x.f.7.$. .` 2 1                           ",
"                                          { { [ ] 7 7 7 3 : , 7 [ [         7 `  .@.a.a.$.$.X._ ` 1 <                           ",
"                                                                            { 2 )  .O.+.o. .) ) 1 ; ;                           ",
"                                                                                7 7 ) ) 7 2 1 : ; :                             ",
"                                                                                  O.{ [ ] ] 7 7 7                               ",
"                                                                                                                                ",
"                                                                                                                                "
};
