/* XPM */
static char *result[] = {
/* columns rows colors chars-per-pixel */
"64 64 123 2 ",
"   c #52150B",
".  c #58160B",
"X  c #55190E",
"o  c #5E190D",
"O  c #651B0E",
"+  c #731E0F",
"@  c #6D1E10",
"#  c #741F10",
"$  c #6D2417",
"%  c #762011",
"&  c #7B2112",
"*  c #762A1B",
"=  c #703023",
"-  c #7F3F31",
";  c #87210F",
":  c #832313",
">  c #8B2514",
",  c #8D2816",
"<  c #852B1A",
"1  c #8D2C1B",
"2  c #942614",
"3  c #9A2713",
"4  c #952916",
"5  c #9C2A16",
"6  c #952D1A",
"7  c #9D2D19",
"8  c #8B301F",
"9  c #96301E",
"0  c #9E311D",
"q  c #A0321E",
"w  c #8F3120",
"e  c #8E3A29",
"r  c #943322",
"t  c #9C3522",
"y  c #963927",
"u  c #9D3926",
"i  c #9D3D2B",
"p  c #A13522",
"a  c #A23926",
"s  c #A33D2A",
"d  c #9D412E",
"f  c #8E4233",
"g  c #944434",
"h  c #9C4533",
"j  c #954837",
"k  c #9C4837",
"l  c #924738",
"z  c #964A3A",
"x  c #9D4C3B",
"c  c #9E503F",
"v  c #A5412E",
"b  c #A54531",
"n  c #A84733",
"m  c #A54936",
"M  c #A94936",
"N  c #A34C3A",
"B  c #AA4D3A",
"V  c #A4513F",
"C  c #AB513E",
"Z  c #8A4E40",
"A  c #9E5141",
"S  c #9F5B4B",
"D  c #A45442",
"F  c #AD5542",
"G  c #A55847",
"H  c #AE5946",
"J  c #A45C4B",
"K  c #AD5C4A",
"L  c #B05A47",
"P  c #B15D4B",
"I  c #A5604F",
"U  c #AE614F",
"Y  c #B2614E",
"T  c #A46251",
"R  c #AC6352",
"E  c #AC6857",
"W  c #A36C5C",
"Q  c #AC6C5B",
"!  c #B36552",
"~  c #B46956",
"^  c #B66D5A",
"/  c #B86F5D",
"(  c #B6715F",
")  c #B8715E",
"_  c #906E62",
"`  c #AD7463",
"'  c #AD7B6B",
"]  c #B57462",
"[  c #BA7563",
"{  c #B57867",
"}  c #BB7966",
"|  c #B47B6B",
" . c #BD7D6B",
".. c #B7806E",
"X. c #BE816F",
"o. c #AC8575",
"O. c #B68171",
"+. c #BE8371",
"@. c #BD8A79",
"#. c #C0816F",
"$. c #C18573",
"%. c #C28977",
"&. c #C38D7B",
"*. c #C4907F",
"=. c #B99080",
"-. c #C69482",
";. c #C89785",
":. c #C59887",
">. c #C89987",
",. c #C69B8A",
"<. c #C99C8A",
"1. c #CBA18F",
"2. c #C7A292",
"3. c #CCA492",
"4. c #CEA897",
"5. c #CFAA99",
"6. c #D0AD9C",
"7. c #D1B09F",
"8. c #D3B4A3",
"9. c #D5B8A7",
"0. c #D6BAA9",
"q. c #DBC7B6",
"w. c #DACCBC",
/* pixels */
"5 5 7 7 5 3 ^ C 5 5 5 7 5 5 3 M #.3 5 q 5 5 7 5 0 [ q 7 5 5 7 7 5 5 ) v 3 5 5 5 7 4 4 #.C 4 4 2 5 5 7 5 Y a 3 7 5 5 5 5 4 v 0 7 ",
"7 5 5 7 5 > R C 5 3 5 7 5 7 5 B #.5 5 5 5 3 4 5 0 [ q 7 5 7 5 5 7 5 Y a 3 7 5 7 7 : >  .B 2 : : 5 5 7 7 P a 4 5 7 3 & : , n 0 7 ",
"5 7 7 3 7 2 R B 5 5 7 7 5 5 5 n X.5 7 5 5 5 5 5 q } a 7 5 5 5 5 5 5 / s 5 5 7 7 5 2 2 ( s 3 > : 4 3 5 3 K a 5 5 4 > % @ ; v 7 5 ",
"7 7 7 7 7 0 H b 3 5 5 3 5 3 3 n #.5 5 5 5 5 5 5 q X.v 5 5 5 5 5 5 q #.v 7 7 7 7 0 4 < [ v 0 9 9 9 9 8 8 U v 9 < 1 9 < $ * C b b ",
"$.&.<.;.&.&.&. .~ ! ! ! ! P Y &.4.} } [  .X.) ( #.1.#.^ )  .#.#.}  .<.&.#.&.>.*.X.X.X.3.*.X.X.*.,.*.*.:.<.*.%.@.&.*.X.X.X.%.1.3.",
"n M [ ! b s p N C B B  .$.L L L B B C C ~ X.v v v q a v n C  .B n s q v s v #.) v v v i y u a V [ v v u u u r e V S 0 0 0 0 s s ",
"5 5 5 5 5 7 3 > 3 5 3 L L 3 3 3 5 3 5 3 v ~ 3 5 7 5 5 5 5 q C 5 5 5 5 5 5 5 a C 5 5 4 : ; 4 5 u ! 3 5 4 3 5 5 > u v 3 , 2 5 5 5 ",
"5 5 5 5 7 3 5 5 5 5 3 L L 5 5 5 7 5 5 5 v E 4 5 5 4 7 5 5 a L 5 5 5 5 5 5 5 v F 3 , , : > 5 3 s ! 7 5 > 2 5 5 5 t v 5 4 2 5 5 5 ",
"7 4 5 5 4 5 2 2 7 5 5 L P 5 7 5 5 7 5 5 v Y 5 4 4 3 5 5 5 p F 7 5 5 5 5 5 5 a C 5 5 5 2 2 5 5 v ! 5 7 3 3 , 4 3 a d 3 4 4 7 7 7 ",
"3 5 7 3 4 3 ; > 5 3 3 L P 3 3 5 5 5 5 5 b Y 5 5 4 5 5 5 5 q Y 7 5 5 5 7 7 q n C 5 5 3 ; 4 5 3 v ) p p q 0 t v s n b > 4 5 3 3 5 ",
"Y ) &.) ~ Y R ) ^ ) ) &.<.} #.#.+.%.&.*.;.1.%.#.X.&.#. .#.$.4.$.%.*.*.*.*.*.3.<.} } ) ) ~ Y Y } 9.6.6.5.5.5.9.9.5.*.} [ }  .X.[ ",
") ! Y ) ~ ( 4.1.[ [ ) P ~ ) [ *.5.( K F L C Y ! ) 5.#.[  .#.) ) / } 3.} Y C B C C F P &.~ H C L P J U ! -.[ H F m B M M B [ ! M ",
"5 5 3 3 5 3 ~ ! 3 3 5 3 3 3 3 a ) 5 3 3 3 5 2 2 7 #.v 3 5 5 3 3 5 5 [ s 5 5 5 5 3 3 3 U u 2 3 5 3 2 2 3 ~ b : 2 + : 5 3 2 b q 5 ",
"5 5 5 5 5 5 ~ ~ 5 3 3 5 5 7 5 s %.0 7 5 7 5 5 7 7 $.M 5 5 7 7 7 5 5 / v 5 5 5 5 7 5 3 Y s 3 7 5 5 5 4 2 ! h : @ O & : & 4 a q 5 ",
"5 5 5 5 5 3 U Y 3 5 5 5 5 5 5 a ' 0 7 3 5 5 3 5 7  .v 7 5 5 7 5 5 5 / n 5 5 5 5 7 7 3 Y s 5 5 5 5 7 3 > T m 2 : , 4 : & 4 C M 3 ",
"5 5 5 5 7 4 ~ ! 3 3 5 5 3 5 3 s { 5 3 > 2 3 4 4 3 { s 2 ; 2 2 > 5 3 ~ v 3 5 3 3 3 3 5 ! v 3 3 5 3 5 3 2 ~ b 2 : : > > > ; H C 0 ",
"C B M n v n #.%.C L C F B L ) ~ >.Y K Y ~ Y H C U ,.) K Z S F N k B #.) L P U Y Y P Y 3.&.} } } } ~ ! ! ^ M C Y Q Q ~ R R &.,.-.",
"! Y <.%.Y L Y ~ ~ ~ ~ %.3.#.} ~ Y U ^ Q { -.U Y K Y ! Y P  .1.Y L F H L B B Y <.L C C F L F H P $.F M b q 7 a s b ] b m M M s v ",
"5 5 s q 5 3 5 5 3 5 3 M ~ 5 5 3 3 4 > 2 5 0 4 2 3 4 3 3 3 a $.0 5 5 5 3 3 3 a *.0 3 3 7 3 2 2 q Y 5 5 5 5 5 5 5 0 ) 7 3 7 5 5 5 ",
"5 5 5 5 7 5 5 5 7 5 5 d ~ q 5 3 4 5 3 5 4 2 7 3 7 4 5 3 3 s  .0 3 5 7 3 7 7 a >.a 7 2 3 7 5 7 q ! 7 7 3 3 5 7 7 p ] 7 3 7 5 5 7 ",
"7 q v q 5 5 4 5 7 5 5 M 8.,.F 3 5 7 5 7 7 5 7 5 7 3 3 7 5 a [ q 3 , 7 5 5 5 q *.a 5 3 7 5 7 5 q Y 5 5 5 7 5 5 5 q ^ 7 > 2 7 5 7 ",
"3 q *.b 3 5 2 > 3 5 3 b 3.,.,.0 3 3 3 4 5 u 5 5 5 5 4 3 3 q &.q 5 3 3 5 3 5 s &.p 5 5 3 5 5 5 q P 5 3 5 5 5 5 5 0 $.s 7 2 7 a p ",
"M P 8.) B H L F Y Y !  .7.O.8.{ ! ^ ( ) X.4.#.X.#.) U Y Y [ 7./ P Y H P Y ) ) 6.>.Y K F H F H ! *.[ ] }  .} $.%.$.6.6.3.<.3.9.8.",
";.<.*.X.^ } >.8.3.1.1.<.1.@.{ ;.9.X./ ~ K ) &.*.;.8.&. .[ #.#.#.#.<.0.#. .X.X.X.X.#.#.1.-.[ [ } [ ] R } <.7./ ! ! C Y / )  .} ) ",
"q 5 7 2 5 3 v [ 0 0 7 7 7 5 3 s &.0 5 3 3 5 5 5 5 ) p 5 5 5 5 5 5 q $.n 3 5 5 3 5 5 3 P b 5 5 5 5 3 5 3 M F 4 3 5 5 3 3 3 3 3 3 ",
"5 5 5 5 5 4 0 ~ 7 7 7 5 5 7 3 a X.0 7 5 5 7 5 5 q / a 5 5 5 5 5 7 5 #.n 5 5 5 5 5 7 5 L v 5 5 7 7 3 5 5 v q 5 2 > > 3 5 7 7 7 7 ",
"5 5 5 7 7 5 t ~ 5 > 5 5 7 7 3 a %.0 5 5 5 7 5 7 7 [ p 5 5 5 5 5 5 5  .b 5 5 5 7 7 5 3 H s 5 7 5 3 5 5 5 M a > 4 2 2 3 5 7 5 3 7 ",
"2 5 5 5 5 5 s ( 5 ; 4 5 5 5 3 a %.5 5 5 5 5 5 7 7 } q 5 5 5 5 5 5 5 } v 3 5 5 5 5 2 2 F s 3 2 3 7 3 5 5 M t ; 5 5 5 3 5 5 5 5 4 ",
"v M b v v a ~ -.v s i s v b n H 4.! C n b v v v v *./ C L L C L L ) 1.! n n v v v s u ) ^ M K Y B B C C #.X...[ [ ) ~ ( } } B C ",
"3.5.7.,.-.@.<.3.>.*.*.<.7.9.<.-.,.*.%.*.1.4.%.%.#.$.&.$.$.$.4.%.#.#.#.) } } #.1. .[ } @.*.*.<.3.<.( [ / ;.%.) }  .<.%.$.$.X.}  .",
"a a B y 0 9 9 0 a 0 0 C [ C p 0 7 5 5 0 b $.9 7 7 5 5 5 5 q ~ q 5 5 5 5 5 5 q } 0 4 7 7 7 7 0 s ) 5 5 5 C a 3 5 5 P 5 : + 2 5 5 ",
"7 5 5 3 7 7 7 3 5 7 5 m Y 5 5 3 5 5 4 5 s [ 4 4 7 5 7 5 5 q ! 7 5 5 5 5 5 3 v #.7 2 7 3 7 4 4 0 / 5 5 5 9 5 5 7 0 K 7 4 4 5 7 5 ",
"5 7 5 4 4 5 7 7 4 5 5 B P 5 7 7 5 5 5 5 n #.7 7 7 5 3 5 5 q ! q 7 5 5 5 4 4 a X.7 3 5 4 7 5 5 q ) 7 5 7 5 5 7 5 7 F 7 3 4 7 5 5 ",
"# # v p 5 7 5 5 5 4 3 B P 5 5 7 5 5 5 5 v $.5 5 5 5 5 7 5 q P 7 5 5 5 5 5 4 4 ~ 7 5 4 3 3 2 a L [ 5 5 5 5 3 2 5 7 ! q 3 3 5 & : ",
", b ;.P 7 7 7 5 , 4 5 B Y a a a a a a v L 1.v q q p q p q a #.C n v v a a v b X.F B C C m b ( 7.<.C B L C Y J x P <.$.#.&.} R T ",
"&.4.0.>.} } ) v 3 a } ;.5.3.1.1.6.*.*.<.3.6.%.$.&.<.} / ~ ) &.&.%.$.*.#.) } X.:.*.*.>.3.;.X.X.*.<.;.*.&.3.>.&.&.*.;.<.*.-.8.4.>.",
"b a s s s a V ` q 7 a v v s s v #.n q 0 a q q q p [ M 5 7 7 7 7 7 5 B v 7 7 5 q 5 7 7 C j 4 7 7 7 7 5 7 C q 7 7 7 7 7 5 2 ^ M 7 ",
"7 5 5 3 5 3 f @.7 3 5 7 5 5 3 7 ~ q 3 5 5 5 5 5 5 ~ b 7 5 7 7 7 5 5 C n 5 5 5 5 5 5 5 M s 3 3 7 5 7 5 7 C q 3 7 5 5 7 7 3 F t 3 ",
"7 7 4 : : 2 m %.5 3 5 5 5 q 5 5 ~ q 5 7 5 7 7 5 5 ! n 5 5 5 5 5 5 5 C M 5 q 5 5 5 7 5 C v 3 4 5 5 5 7 5 C p 5 5 7 5 4 : : b 0 5 ",
"5 3 5 7 5 2 N %.4 5 5 7 5 5 5 5 ( u 5 7 5 5 5 5 3 ~ v 3 5 5 5 5 5 5 n s 3 5 5 5 5 7 5 C v 3 5 3 5 5 5 5 C q 5 3 5 2 4 3 4 v 7 5 ",
"5 6 4 5 7 3 N -.0 5 7 7 5 5 7 q ) v 0 0 q q a q p } H a v p a t q q L C q a 0 7 7 q 7 Y %.C i s s a a p ! B v b v b B B C / b s ",
"] |  .} [ [ $.8.%.X.}  .X.#. . .<.*.X.X.*.-.*.*.&.<.;.&.-.-. .( / ^ } #. .] X. .! Y P ! *.;.*.2.*. .}  .&.&.&.%.,.<.&.*.-.;.&.%.",
"k g ] ~ b n M b v v y K Y b v v a a s a C C u a a p q t 0 A F 7 7 5 , 7 0 7 B U 0 9 0 5 7 0 0 H C 7 7 7 7 4 0 7 s v 7 7 7 7 4 1 ",
", ; F M 3 5 5 3 5 2 2 n M 5 5 5 7 3 3 5 a v 3 5 5 5 5 2 3 M B 3 5 5 5 5 2 3 n F 5 3 7 5 5 7 4 C B 7 7 5 7 4 , 5 5 5 5 5 7 5 : , ",
"7 4 R B 5 5 7 7 5 4 5 b M 5 5 7 7 3 4 3 s v 4 5 7 5 5 4 > M N 3 5 2 3 , 4 5 b D 2 5 7 5 3 5 3 B n 3 5 7 5 7 3 7 5 7 5 7 5 4 5 7 ",
"7 3 H B 5 5 5 5 2 5 5 b M 5 3 4 5 7 4 2 v d 4 5 5 7 5 7 4 M F 5 5 4 5 4 5 4 v C 3 3 > 8 1 2 3 C [ a 3 3 5 3 3 4 7 7 5 3 5 3 7 3 ",
"5 2 G C 3 3 7 3 4 5 5 v M 3 4 5 3 5 7 7 v x , 3 5 4 7 5 5 F O.b M u s a q 0 D *.m k V k c A n ( q.<.F b M M v b ! ^ s i M h i s ",
"Y ! ,.,.^ ^ )  .) ^  .*.*.X. .) } ~ ! ^ ..X.( }  .%.~ U ^ &.7.@.@.*.1.:.} ) X.1.*.@.*.1.1.,.;.-.*.-.*.+.$.$.@.&.*.,.-.X.&.-.&.;.",
"x V V x f h M ..B M B C B C C M ^ B a a a u y d v +.b 0 9 9 l = $ < { x 7 0 0 0 7 4 7 Y B 7 q q 3 7 7 7 C p 7 7 4 9 6 < 6 7 9 w ",
"2 : : 2 4 : 6 { t 2 3 5 5 5 5 5 v 7 3 , 3 3 , 3 3 ^ s 7 7 5 4 3 4 2 K v 3 3 4 3 4 2 5 H h 3 5 5 4 7 7 3 L u 4 4 3 4 : 4 , : : 4 ",
"3 % & > % % , X.h : 4 7 5 5 5 7 K 9 5 3 7 5 5 5 7 } a 5 5 5 5 5 7 5 P b 7 5 5 5 7 5 5 L v 4 5 5 5 5 3 4 K y : 2 7 2 % # , & % 4 ",
"4 > , : o % & O.B 3 4 4 5 7 5 7 K 9 5 7 7 7 7 5 5 } a 5 5 7 5 5 5 5 ^ b 5 3 5 5 7 3 3 P v 3 5 4 4 5 5 5 H F 3 5 4 : # o & > , 4 ",
"4 2 3 6 , 3 6 :.H 5 3 , 7 7 7 r Y 0 3 5 3 2 3 5 5 ) v 7 5 7 q B 7 7  .L 0 t 9 q 0 9 s [ ! M B B d s b M ' @.B N B d v g b s 6 i ",
"@.+.&.&.<.<.1.q.8.-.<.<.<.1.3.5.8.-.%.$.} [ ^ / ) 4.5.;.*.;.1.6.*.&.} %.-.%.-.<.<.<.2.-.-.<.<.8.5.&.&.<.+.&.3.>.4.-.%.-.;.<.@.+.",
"` ` 2.w.5.} ! [ { '  .*.-.} } #.} ' } } &.$.Y P L C P P Y [ ~ v M b 7 q s 0 Y P M b v q 0 0 1 ~ K 0 q q 5 5 1 6 K ! 0 0 9 u y 6 ",
"4 4 { Q s 3 4 2 4 > > B b 3 5 3 4 > 3 3 B v 3 3 5 5 5 3 3 b v 7 5 3 3 5 2 3 L v 3 5 5 5 5 3 > D M 3 7 5 5 , , 3 V =.C 3 4 4 4 4 ",
": 4 U 0 2 7 3 4 2 , 4 F B 5 5 7 , : 4 2 F C 5 3 3 5 3 5 3 M n 5 5 7 7 3 5 3 L v 3 7 7 3 6 4 ; z M 5 5 7 7 3 > , d d 7 4 4 7 , : ",
"@ % U s 4 2 7 5 4 > 2 H M 3 4 5 : : 4 2 B B 5 5 4 7 7 5 3 C M 5 5 5 5 5 5 5 F h 3 5 3 7 4 , : e v 3 3 5 3 4 > 3 M v 4 4 7 3 & @ ",
"& : J r 3 > 4 4 4 4 > H B 2 3 4 : , 4 3 C M 3 3 3 3 4 5 5 C M 3 5 5 3 3 3 2 B b 3 7 5 3 5 4 > f m 4 4 9 9 1 9 6 N i : 3 , > : : ",
"n B { b u u u 9 t t 0 P } V C F { &.! C ~ ) Y Y ! ! Y P F ) ~ C P ~ ~ ~ ^ ^ ^ K B Y )  .} [ [ X.*.%.X.%.*.*.&.{ @.@.O.%.X.&.+.-.",
"_ o.| } ( W { $.~ I I V C K H ] *.W ! Y C F Y L  .5. .H M M B B P  .-.! ! L b p p s P 5.^ C j M b b i v G k d u t d j m C ` z - ",
"X X # , , > k C 5 4 4 4 > 2 ; v H ; 3 3 5 5 5 3 B 1.M 5 5 7 5 5 5 a ) 3 5 5 5 5 7 3 a -.p 3 : 3 3 , > 6 E 4 , 5 5 2 > > , *   . ",
"% & O > 3 5 b B , 5 5 5 7 : : N P > 2 7 5 5 7 4 h 5.R 3 5 5 5 5 5 a &.p 7 4 3 5 5 5 a -.a > , 7 4 : : p ) q 4 , 3 7 5 3 , O & % ",
"% > % 4 7 7 k ^ 4 4 7 7 5 > ; g P ; 2 5 7 7 3 3 h ( 6 4 5 7 5 7 5 a +.0 4 4 , 4 5 3 a -.a 4 : 3 > : , ~ -.0 3 4 5 5 7 7 3 % > & "
};
