/* XPM */
static char *_7678c8073334536847db5f0b4918128XemiAkkP4uzn4tda[] = {
/* columns rows colors chars-per-pixel */
"64 64 255 2 ",
"   c #050405",
".  c #04050A",
"X  c #080709",
"o  c #040B0D",
"O  c #040613",
"+  c #040B13",
"@  c #090D14",
"#  c #030C19",
"$  c #080818",
"%  c #061214",
"&  c #0B1115",
"*  c #04141C",
"=  c #0B141C",
"-  c #06191E",
";  c #0B1B1E",
":  c #070920",
">  c #0C1522",
",  c #081526",
"<  c #051B23",
"1  c #0A1B24",
"2  c #04162D",
"3  c #051B2C",
"4  c #0B1C2A",
"5  c #111A2A",
"6  c #051631",
"7  c #091631",
"8  c #031B34",
"9  c #091B33",
"0  c #041D39",
"q  c #091E3D",
"w  c #131E31",
"e  c #062627",
"r  c #04232C",
"t  c #0B232C",
"y  c #042335",
"u  c #072737",
"i  c #0B2532",
"p  c #0C2A35",
"a  c #02233B",
"s  c #032B3D",
"d  c #0B2B3C",
"f  c #122735",
"g  c #083239",
"h  c #10323B",
"j  c #022642",
"k  c #022B44",
"l  c #092945",
"z  c #022D4A",
"x  c #092F4D",
"c  c #043244",
"v  c #0A3445",
"b  c #013945",
"n  c #03344C",
"m  c #0A354B",
"M  c #023B4D",
"N  c #0C3A4C",
"B  c #133749",
"V  c #133A4D",
"C  c #033552",
"Z  c #023C53",
"A  c #0C3C52",
"S  c #093855",
"D  c #033D59",
"F  c #143D53",
"G  c #1A3C54",
"H  c #163D58",
"J  c #044255",
"K  c #0B4155",
"L  c #0B4B56",
"P  c #03435B",
"I  c #0B445C",
"U  c #094B5C",
"Y  c #134154",
"T  c #1A4457",
"R  c #15435A",
"E  c #134A5C",
"W  c #074763",
"Q  c #0B4B64",
"!  c #144D64",
"~  c #0E5168",
"^  c #175567",
"/  c #1B5B6B",
"(  c #185972",
")  c #285B6A",
"_  c #275D74",
"`  c #1D656C",
"'  c #1C6574",
"]  c #24636D",
"[  c #2A636E",
"{  c #256374",
"}  c #296876",
"|  c #326B7B",
" . c #326F7A",
".. c #1E6C86",
"X. c #2D738A",
"o. c #28748B",
"O. c #377687",
"+. c #3D7B8A",
"@. c #397D95",
"#. c #437C8A",
"$. c #487E92",
"%. c #3E8498",
"&. c #3591A7",
"*. c #39A1B4",
"=. c #47838D",
"-. c #438293",
";. c #4A8494",
":. c #47889A",
">. c #4C8B9C",
",. c #548B9B",
"<. c #48919F",
"1. c #56939E",
"2. c #608C95",
"3. c #468DA2",
"4. c #548EA1",
"5. c #4A95A9",
"6. c #5797A6",
"7. c #5A93A4",
"8. c #549AAB",
"9. c #5C9CAC",
"0. c #499BB3",
"q. c #579CB6",
"w. c #6798A7",
"e. c #639CAD",
"r. c #679DAF",
"t. c #59A0AF",
"y. c #4CACB7",
"u. c #45ABB8",
"i. c #5CA2B2",
"p. c #57A7B8",
"a. c #5BA4BC",
"s. c #64A2AD",
"d. c #65A3B3",
"f. c #66AAB8",
"g. c #6CABBC",
"h. c #74A4B4",
"j. c #77ABBA",
"k. c #71B0B8",
"l. c #58A7C4",
"z. c #5CAAC2",
"x. c #4CB8C8",
"c. c #56B7C5",
"v. c #64AAC5",
"b. c #6CACC3",
"n. c #72ADC3",
"m. c #6CB3C3",
"M. c #68B7C9",
"N. c #74B3C3",
"B. c #7BB3C3",
"V. c #79B8C7",
"C. c #74B4CC",
"Z. c #74BACC",
"A. c #7CBBCA",
"S. c #69B8D3",
"D. c #76B9D4",
"F. c #7EBDD3",
"G. c #5BC2CF",
"H. c #77C2CD",
"J. c #66C7D5",
"K. c #79C5D7",
"L. c #72D8DE",
"P. c #75D5E3",
"I. c #86AFB8",
"U. c #89C2BD",
"Y. c #86B7C5",
"T. c #83BCCB",
"R. c #96BDC5",
"E. c #82BED3",
"W. c #84C4CC",
"Q. c #8AC6CB",
"!. c #98C9CB",
"~. c #9AD1CD",
"^. c #83C3D4",
"/. c #87C8D5",
"(. c #8BCCD5",
"). c #84C3DB",
"_. c #89C5DA",
"`. c #8DCBDC",
"'. c #97C8D5",
"]. c #93CDDA",
"[. c #88D1D6",
"{. c #8DD3DA",
"}. c #98D4D5",
"|. c #94D2DC",
" X c #9BD4DC",
".X c #9BD9DD",
"XX c #A1C5CD",
"oX c #A5CCD6",
"OX c #A4D3D5",
"+X c #ADD4D5",
"@X c #ACD9D6",
"#X c #A3D5DB",
"$X c #ACD4DB",
"%X c #A4DCDD",
"&X c #ACDBDD",
"*X c #B7D7DC",
"=X c #B3DCDD",
"-X c #ACE1DD",
";X c #B7E1DE",
":X c #8ACAE2",
">X c #94CEE1",
",X c #8AD6E7",
"<X c #96D5E7",
"1X c #9BD6E3",
"2X c #9CDAE4",
"3X c #9CDBEB",
"4X c #9ADAF1",
"5X c #A2D4E3",
"6X c #A9D4E6",
"7X c #A3DCE4",
"8X c #ACDEE2",
"9X c #A4DEED",
"0X c #ACDDEB",
"qX c #B4DCE3",
"wX c #B5DCE7",
"eX c #BBDCE4",
"rX c #A6DCF1",
"tX c #9DE2EA",
"yX c #94E4F6",
"uX c #ACE2E5",
"iX c #A4E3EA",
"pX c #ACE3EB",
"aX c #B4E2E4",
"sX c #BCE3E4",
"dX c #B3E4EA",
"fX c #BCE5EB",
"gX c #B9E9EA",
"hX c #A7E5F6",
"jX c #ACE4F4",
"kX c #B8E7F5",
"lX c #B9F1FB",
"zX c #C4DCE4",
"xX c #C4E3E5",
"cX c #CBE4E5",
"vX c #C4E4EA",
"bX c #CAE5EB",
"nX c #C4EAEC",
"mX c #CCEBED",
"MX c #D2EBED",
"NX c #D6E8EC",
"BX c #CFF2EE",
"VX c #C3EAF3",
"CX c #C6EAF5",
"ZX c #CCECF2",
"AX c #D3EDF2",
"SX c #DAEDF3",
"DX c #C9F2F9",
"FX c #D5F2F5",
"GX c #DBF2F5",
"HX c #DBF4FB",
"JX c #D8F8FC",
"KX c #E2F2F5",
"LX c #E7F0F6",
"PX c #E2F5FA",
"IX c #E7F6FA",
/* pixels */
"; < > = = % - & = & <   1 > > = < > 1 > > < 1 ; o < = > 1 = = = = ; = = = 5 . = = < = = > = 1 = = 1 = = = = = > 5 ; = < = - 1 = ",
"< < - & % & % & & & #   % & & * = % = = & & = = X & & & = @ = @ @ = = & & =   % % = & = & & & & = = % = & @ & & ; & = & = = t - ",
"1 < - % o @ o o @ X %   + + @ o % o % o @ @ o o   o o + % o o X X @ o o o %   o o @ X @ X o o o o % o @ @ X o o @ @ X X o & t < ",
"1 < ;                               . . . . X   .   .   X     X X                               X       X .     X     o o o t = ",
"w 1 = @ O O + O O o O . @ . O O O . O O + O O O O O O O O o O O O o o o O O O o . @ O O O o o o o O @ O O O O O O @ O O . . < < ",
"1 e * , s s a j j l z k s s s s c a k s s s s s s s s s s s s s s k v j s u s k c k s s k k j j c j z j s s k j s k k k < . < < ",
"1 1 h ) A.A.A._.).`.].W.`.>X>X).>X`.F.^.F.K.^./.K.^.^.^.A.^.^.f.E.D.E.).`.`.T.C.C.F.^.E.V.`.^.).F.Z.K.`.b.f.K.C.C.p.v.z.b + - < ",
"1 t ) hX} -. .1.1.=.k.k.;.7. .;.,.1.;.#.-.+.4.+.;.+.+.w.7.;.1.+. .[  .O.| #.=.+.#.+.+.-.+.{  .#. .+.} O.-.+.O.@.O.X._ { J.O ; 1 ",
"1 t ) {.+.1.w.k.Y.k.V.s.s.s.1.,.;. .;.-.-.#.[ #.#.$.4.r.e.,.#.7.#.;.;.1.;.,.7.7.e.e.e.w.6.6.,.>.-. .6.<.3.4.{ $.>.-.( Q x.O < 1 ",
"; t [ (. .h.k.1.V.Y.W.k.f.k.s.k.s.s.k.s.e.s.6.6.e.>.,.w.B.T.Y.A.2Xd.7.h.e.B.T.C.g.g.e.B.e.6.r.9.:.1.>.t.8.f.:.%.+.-.+.' y.@ ; 1 ",
"1 w [ 6. .:.s.s.s.t.k.f.k.k.k.H.5.8.g.V.B.V.f.8.V.B.Q.`.|.E.Y.W.g.t.i.g.d.j.N.m.m.Z.<XB.V.9.i.5.8.6.<.H.z.p.8.8.i.t.>.O.c.. = < ",
"1 t [ g.1.9.t.m.k.M.H.f.M.H.P.g.f.3.d.T.^.Z.M.Z.M.^.5Xh.5X0X X(.H.c.f.f.A.`.>XK.K.^.>XW./.t.m.c.0.0.0.v.c.c.u.p.q.<.5.+.P.$ - * ",
"; t [ 1Xf.k.%.%.3.3.3.%.%.:.@.@.@.o.3.3X>X5.%.3.8.,X5X#XR.wX5X<X%.3.3.%.(.#X<X%.-.$.3X3X^.:.X.O.o.o.o.X.@.@.o.X.X.+.6.@.x.O - - ",
"1 t [ <Xd.K.U Z S D D n M M C C Z P L pX9XJ Q Z J ].dXZXZXnXfX<X~ P Q U 7XpX3XZ A P .X5X|.W C C b c n n n n z C P ~ 4.<.yX+ - * ",
"e r ` 2Xm.M.P j 0 a j k a a 0 a a n I OX0XO.M z Z |.VXvXHXmX=XA.Z n P X.6XfX7XC a P .XqX9XD j 0 a 0 a a 0 0 8 a c ( 5.<.J.O = * ",
"1 u ` /.m.K.C 8 6 9 9 q 6 2 7 6 7 j P +XwX2XZ j l ! 8XZXMXBXdXK j j P 3XaXfX9Xk a Z uXmX XS 0 6 3 2 8 8 8 9 6 2 j ( i.:.J.@ > * ",
"; u ` W.i.c.n 2 7 y a s a 0 a 8 a k U -XpX}.J a 0 Z 5XsXmXnX2XM a k U 7XqXuXtXk 2 J #X;XpXD a 9 6 6 2 6 8 3 0 0 j ( i.>.G.$ = < ",
"e r ` [.f.f.C 8 6 a k n n c k k c Z U aXfXuX8.j 0 n W.uXaXOX>.m 6 n i.8X=X%XA.j 3 M uXfX XP c k k a 6 6 8 a k k C ( t.:.G.$ = # ",
"; u ] (.g.t.S 2 8 n Z D P P Z Z Z P K sXCX;X`.J y k J .XdX7XA 2 0 Z 7XsXGX+X<Xz 9 Z &XbXaXZ Z D Z n 0 6 s b Z J P ( f.%.x.$ > # ",
"1 e ] g.<.5.C 8 a <X8X}.uXuXpX7X7XtXdXsXAXvX#XA j a Z tX.X1Xc 0 j L OX;XNXgXiXz 0 Z %XxXsXpX X}.K.M.0 2 J f.K.H.m.1.s.-.G.O = * ",
"5 e [ V.9.f.Z 8 k .X&X~.nXnXnXfXeXfXDXcXZXDXaXV.z 0 z 4.{.{ a 6 k {.gXmXMXxXV.n 7 J }.xXeXfXgXpX.XH.a 3 b K.[.T.(.Y.j.| y.# > * ",
"5 e ) Q.:.f.C y j .XsXeXzXGXZXvXMXSXMXAXbXcX=X(.K a j M K.N 0 a Z !.sXGXPXbX.XM 9 Z -XmXZXbXbXqXOXW.j 2 M K.!.'.oXj.h.O.c.# * * ",
"; ; ) jXg.,XC 3 l tXnX*XKXPXmXBXAXHXAXGXAXIXAXqXJ l y c H.g 2 j [ =XGXKXLXBXpXC y Z &XAXSXPXKXSXxX{.k a M .XOXqX$XI.h.+.P.O , - ",
"t ; [ g.7.H.D 3 s tXeXeXcXmXmX=X;XnXBXPXSXNXKXnX|.j 0 s y y 0 n jXnXGXIXSX+X2XC a Z =XxXPXIXLXIXmX|.j 8 Z %XVXvXzX!.Y.#.P.O , , ",
"1 e ) 3Xe.m.A 2 a .X$X8XsX=XfXaXsXsXxXcXGXGXcXBXQ.K a i 8 6 y D #XxXIXKXKXcXpXM a Z OXzXPXKXIXLXMX|.k 8 Z &XqXeXqXXXY.$.K.$ : , ",
"1 e ] 9Xb.H.A 2 0 E ^ U Q ~ ^ ^ / ^ OXGXPXGXGX;X;X^ j 9 6 8 C e.fXGXIXIXLXMX.XZ a J !.mXGXIXIXKXbX|.j y Z #XkXeXbXoXY.,.P.$ > > ",
"1 e ` ^.f.a.C 8 6 k k c z z n Z J W Q.mXGXGXGXFX-X(.M 6 7 9 Z {.nXcXSXSXGXeX XZ a P ~.*XPXPXPXAXnX`.a 8 Z  XvXeXCXR.$.#.l.$ = > ",
"< e ` /.8.f.M 8 6 8 0 0 0 0 0 a a J W.sXIXHXGXAXsXm.n 9 3 a L iXsXFXGXMXPXZX2XC a P U.gXzXcXAXmXnX(.a 8 Z 5XfXqXoXI.I.O.c.O > = ",
"< p { H.4.5.M 8 2 7 7 6 7 2 2 2 8 M (.nXGX;XeXxX=X[./ 3 2 y p.}.;XxXFXmX;X-X[.n j P %X;X*XvXAXZXuX[.a 8 C 7XfXeXzXR.h.$.y.$ > > ",
"e e [ ].H.t.C 3 2 6 9 0 8 8 8 8 0 C T.sXMXmXxXAXsX[.c 6 6 0 L Q.&XnXcXHXxXsX/.z j W uXgXeXsXMXAXaX(.j 8 Z (.dXvX$XR.j./ u.# > = ",
"1 e { jXN.H.S 8 8 j z z c c k k n P '.bXGXSXKXGXDXtXj 3 7 0 n .XaXsXcXMXFXsX5Xz a W sXJXMXzXAXGXnX|.s 8 Z |.CX*XwXR.j.+.S.O > > ",
"4 e _ |.B.m.S < 0 M M M M Z M Z S J #XSXLXKXKXAX-X] j 8 3 9 z t.qXBXFXPXGXsX7Xj a P sXAXNXSXAXAXsX(.a 8 Z Q.CXZXqX$Xh.O.&.O > > ",
"4 r [ `.7.p.C 3 k .X8XuXuXiXuXgXfXsXBXKXLXKXNXnX].b s 8 9 7 a U #XvXSXcXSX=X8Xj a J ~.xXGXMXbXMXvX|.a 8 Z Q.!.zXeX6XB.$.D.# , , ",
"t t } ].f.g.M 3 k iXgXnX-XVX8XZXxXMXZXGXLXLXKXnX/.n a a l y 9 D pXsXGXKXBX@X2Xk 8 J !.sXGXFXcX*X+XW.j 8 M (.VXzXbX!.h.$.S.# > > ",
"t e ) Q.6.H.S 3 z 2XqXcXsX*XnXcXmXMXGXGXKXSXPX@XL a a A f.j 6 z { gXFXMXBXaX.Xj 0 M Q.$XcXPXFXxXZX|.j 8 J }.CXCXzX$XY.$.S.# > 4 ",
"t p } K.k.k.C 2 l (.uXZX=XgX=XsXFXmXBXPXcXPXgXW.Z 7 s U c.n 0 j J k.~.@X;XsX|.k 7 J %XvXHXHXmXvXaX{.a 8 A (.qXqXqXR.j.#.c.# > 4 ",
"t p ] t.9.p.M 0 s {.8XaX$X-X}.fXnXcXBXnXHXbX&Xd.l 3 n i.W.E j 8 n (.OX=X*X~.Q.s 0 J %XbXSXPXGXeXaX[.j 8 Z |.&XeXoXY.2.O.u.# 1 < ",
"t p } /.8.8.C 6 a [.]. X X7XiXuXdXuXZXmXmXvX].K 8 8 J [.~..Xz 3 a L iXsX*XOX2Xs 0 Z ~.vXAXNXSX*X&X/.a 8 Z |.gXwX*XoXh.O.y.+ 4 , ",
"t p ] ^.9.a.C 8 8 K E E E U K ! ! E T ;XmXzX2XC 8 j ^ .XQ.Y.J 7 0 P (.&XxX~.|.j 8 Z OXvXMXMXSXmX&X/.j 8 Z 2XfXfXoXR.w.| u.$ > 4 ",
"1 h { N.6.a.C 8 9 a z k n z k k k Z b nXmXvX%.n y n tX;X@XpX .x 8 Z V.%XxX&XW.k 8 J &XbXAXcXNXMXfX{.s 8 Z 2X=X$X*XR.w.{ *.O t < ",
"e h ] A.8.p.C 6 6 8 0 9 0 0 0 y 8 j b fXDXaXS j k J .XFXmXeXQ.n 8 j P |.;XsX|.k 9 M uXbXSXGXAXZXsXH.k 8 S iXwXCXeXfXw._ c.O 7 < ",
"1 g ] `.V.H.C 0 6 6 8 2 7 3 2 2 7 a M OX*X}.n a S -.OXcXAXnX%XJ 0 6 M 2X=X%XH.k 9 J }.+XAXNXNXZXaX|.k 8 Z '.$XoXwXoXh.#.c.: 4 , ",
"t g ` v.`.H.A a 0 0 a 0 0 0 a a 0 j Z gXsX( Z k Q dXnXHXGXFXvX:.k 3 z 9.dXdX3XM k Z }.BXHXFXPXAXqX].C j J #XCXAXeX6Xh.#.J.: 4 4 ",
"e g ` m.8.b.P C x x C x z z x z z S Z 8XlXW P D J gXxXvXAXAXxX2Xn 8 0 J 7X$X1XW D J @XvXAXAXFXFXbX2XW D P 5XfXvXvXoXj.,.J.$ 4 9 ",
"e g ` S.-.9./ ( ^ / ^ / ^ / ^ / / / [ eXvX_ ) { Q.ZXMXbXzXAXxX-XI a 9 M  X$X8X_ ' / +XZXAXMXMXMXbX9X' { { $XbXvXeX'.B.;.c., , 4 ",
"e g } m.9.N.2XpX.X7X8X7X%XuXuX-X&XgXZXMXxXdX8XgXgXnXAXZXDXvX=XOXj.k 6 j O.#X%X7X#XoXfXbXbXzXAXPXnX8X|.3X3XvXvXzXeXXX4._ G.$ < i ",
"e g ] M.e.V.I.gXfXmXMX+XgXnXnX@X+XsXeXZXh.h.w.gXh.;Xj.AXI.h.j.h.|.P 8 0 Z [.pXuXaXwX'.DXzXHXoXDXwXwX!.1XR.5X>X'.Y.R.h.O.G.: , d ",
"e u } :XE. XdXVXmXPXMXmXFXGXAXZXnXbXbXFXB Z v VXT cXT xXK S B T 7X~ j 0 z /.&XuXxXn N j.DXI.N FX'.) $X5X! jXD Z S j.7.` y.$ 4 i ",
"t p ] >XE.'.vXZXSXNXSXzXNXbXAXZXvXMXPXPXJXC ZXkXR vX/ JX! DXJXVX0X{.n 8 j L 7XkXJXS ZXY cXT A ZXR.S HXD R 0X2.ZXvXY.w.$.u.$ 7 e ",
"5 p ] /.n.>X6XAXAXHXSXbXIXPXPXAXJXHXNXHXHXC DXlXD ) Z CXS | ) 1.qXV.J a 8 K |.0XjX#XCX+XJXn I CX'.~ qXI ! fX_ $.$.oXg._ x.O w 3 ",
"t u [ ^.8.g.6XCXHXHXCX*XHXAXJXDXkXeXzXwXnXM oXDXW ) n kXI I H $.lX|.~ z 0 C M.rX1XwXA S fXZ j.lXoXF.kX! ! kXD C C '.6.@.x.@ w 3 ",
"t t ] V.g.V.w.wXCXvX6XoXCXvXlX5XCXCXDXkXkXn wXkXQ rXQ '.I rXlX4X1X`.P.Z s C D 4XkXe.'.W jXZ A $.Y.4X! _.! 5X,.oXoXQ.r.$.J.$ i i ",
"5 t [ (.8.v.C.rXrXCXCXR.6XkX0XrXE.CXkXrX6XD 0XrXW ].! rXQ D H Q _.F.c.W W W W S.:XD #.W j.4X>XI n.C.D <XQ E.! ..! Y.4.X.x.$ w 3 ",
"f i [ K.v.D.:XrXrXrXjXE.4X_.<X:X4X:X4XrX:XO.E.D.O.).@.E.@.@.@.@.:Xv.S.o...o.o.D.K.:.D 4X..E.D.! r.n.! F./ B.~ ! W g.;.X.x.* 5 u ",
"5 t [ a.a.q.b.rX4XrX).S.K.,Xa.C.C.4X:XC.b.C.F.D.C.).D.v.v.C.C.v.C.S.S.l.&.*.&.@.v.D.C.:X:XC.C.C.n.b.q.E.n.e.C.n.d.4.:.' S.# 2 i ",
"; i | D.a.v.K.:X4X4X,XS.yXK.v.q.q.D.:Xl.F.v.S.l.q.v.D.v.a.q.q.v.l.5.0.&.*.l.l.5.v.K.C.l.v.z.z.z.q.5.4.q.a.q.q.e.5.@.%...J., 2 4 ",
"; t #.K.&.&.5.Z.D.F.`.b.Z.b.S.q...M.z.q.M.0.0.z.0.p.K.l.M.0.a.z.v.5.l.0.0.0.y.t.S.S.t.p.v.y.z.0.0.q.5.&.y.@.3.5.5.0.@...L., , w ",
"1 t r 5X<X<XpXjXjXkXkXlXDXlXrX4XhX3XtXjXhXjXkXkX>XhXlXjX9XiXiXhX4X<X9X3X,X,XtXtXjXlX<XiXrXtXiX3X,X3X3X<XyX4XhXhX4XP.P.J.A.> i w ",
"1 i t < i y t 4 i u h p B B N K A m B V m B v V N N F F N A V V F N m c B v v B N V A V N N A A N A A m n s u u 2 7 3 3 # > i f ",
"; e i < < 1 < < 4 y d e V V V G G G V V V V V G G H H H V G F F G V F V G F B H H T G G H F G H H H H B B l f t $ 5 > 1 1 < f f ",
"- t i < t e t < r r g - V V V V N B N B V V V R F F R R F F F F Y B V V V Y h R R F T T R G H H H H H F v v d d # 4 4 1 t 1 f f ",
"1 e p e e r r < r r s * V B V B N v v B v N V V N Y R A N F N N N Y V v v Y 9 R A Y R R F F N N A R R A Y N d s # r 4 , 4 < f h ",
"< 4 h 4 r u y e r s b O v v g v v v g v b c N N m N K N n n N n N N m n v A < A c N K K v m m n A Y A K N c s a , r 3 4 i , w f ",
"t 4 p y r r g y r r c . v c c v d k s v s d h B d c M n v v m k c c k n g N , m b v K v d k v k N N m A m N d a , i w 4 i 5 i i "
};
