/* XPM */
static char *dd23300ff4a34e18bf3d1c7e356802d0SgZgccgbV7AOaIIU[] = {
/* columns rows colors chars-per-pixel */
"64 64 256 2 ",
"   c #0A0503",
".  c #090707",
"X  c #0B0B0A",
"o  c #150C09",
"O  c #191408",
"+  c #1B140B",
"@  c #090C15",
"#  c #170F11",
"$  c #0E121C",
"%  c #13141C",
"&  c #181718",
"*  c #26180A",
"=  c #351B05",
"-  c #261C17",
";  c #2C2418",
":  c #362617",
">  c #392D14",
",  c #0D1425",
"<  c #131522",
"1  c #191625",
"2  c #141A24",
"3  c #1B1D25",
"4  c #141B2B",
"5  c #1A1E2A",
"6  c #0C1A32",
"7  c #121D34",
"8  c #261D28",
"9  c #1B222C",
"0  c #1C2433",
"q  c #182339",
"w  c #1C2A3C",
"e  c #18333B",
"r  c #282629",
"t  c #362D27",
"y  c #232B34",
"u  c #252834",
"i  c #242C3C",
"p  c #2A2D3B",
"a  c #283339",
"s  c #2D333C",
"d  c #383230",
"f  c #35373B",
"g  c #4A3218",
"h  c #48341A",
"j  c #463725",
"k  c #503C2F",
"l  c #1B413D",
"z  c #5E421D",
"x  c #5A4733",
"c  c #6B5034",
"v  c #1B2A45",
"b  c #1C2C44",
"n  c #1B3745",
"m  c #222D44",
"M  c #2A2E43",
"N  c #253243",
"B  c #2C3444",
"V  c #283648",
"C  c #2D3B4B",
"Z  c #353A46",
"A  c #3B3D44",
"S  c #343C4C",
"D  c #2D3C53",
"F  c #293854",
"G  c #333E56",
"H  c #413D45",
"J  c #1B4C4D",
"K  c #36444A",
"L  c #3C424C",
"P  c #2E4456",
"I  c #354354",
"U  c #3B4352",
"Y  c #314D52",
"T  c #394A56",
"R  c #34445C",
"E  c #3B465A",
"W  c #3C4B5C",
"Q  c #354863",
"!  c #3B4D64",
"~  c #3C556A",
"^  c #39646A",
"/  c #46474A",
"(  c #554E4E",
")  c #434A54",
"_  c #484A55",
"`  c #434D5B",
"'  c #48535A",
"]  c #4A525D",
"[  c #56585B",
"{  c #6A5A4C",
"}  c #6D6758",
"|  c #444C63",
" . c #445363",
".. c #4B5563",
"X. c #4C5A65",
"o. c #44546B",
"O. c #47586A",
"+. c #4B5B6B",
"@. c #535B65",
"#. c #595C65",
"$. c #535D6B",
"%. c #465974",
"&. c #4B5C71",
"*. c #545D73",
"=. c #6A5862",
"-. c #49656C",
";. c #576367",
":. c #54626D",
">. c #5B636C",
",. c #4B6477",
"<. c #536474",
"1. c #5B6572",
"2. c #5C6A74",
"3. c #52647A",
"4. c #56697A",
"5. c #5C6B7B",
"6. c #59727C",
"7. c #666769",
"8. c #756E6B",
"9. c #636C74",
"0. c #696B76",
"q. c #636C7B",
"w. c #64727C",
"e. c #6B7478",
"r. c #6B747B",
"t. c #767779",
"y. c #847C78",
"u. c #5E807C",
"i. c #8F877A",
"p. c #586B82",
"a. c #4C7085",
"s. c #5D7383",
"d. c #5A7787",
"f. c #647482",
"g. c #677086",
"h. c #6B7582",
"j. c #657A85",
"k. c #6B7B84",
"l. c #67758B",
"z. c #657B8B",
"x. c #6B7C8B",
"c. c #737C84",
"v. c #797C86",
"b. c #737D8A",
"n. c #677D92",
"m. c #5C8790",
"M. c #688288",
"N. c #6C818D",
"B. c #73828C",
"V. c #7A848B",
"C. c #7B868A",
"Z. c #6B8393",
"A. c #698795",
"S. c #738493",
"D. c #778597",
"F. c #738A94",
"G. c #7C8B94",
"H. c #758E9B",
"J. c #7C8D9A",
"K. c #6B9699",
"L. c #7C939B",
"P. c #788BA2",
"I. c #6A95A3",
"U. c #7B96A4",
"Y. c #7CA2AF",
"T. c #838484",
"R. c #878A8B",
"E. c #938E87",
"W. c #98958C",
"Q. c #838C94",
"!. c #8A8C94",
"~. c #838E9A",
"^. c #8B9295",
"/. c #859498",
"(. c #83939C",
"). c #8C959C",
"_. c #8D999D",
"`. c #949595",
"'. c #92969A",
"]. c #939A9D",
"[. c #9B9A9A",
"{. c #A29C95",
"}. c #9FA19D",
"|. c #A1A09F",
" X c #8394A1",
".X c #849AA4",
"XX c #8B9BA4",
"oX c #8898A6",
"OX c #8B9CAA",
"+X c #949DA3",
"@X c #9B9EA2",
"#X c #999BA6",
"$X c #949EA8",
"%X c #849DB1",
"&X c #8BA2A9",
"*X c #96A2A4",
"=X c #9BA2A4",
"-X c #94A4AB",
";X c #9BA5AB",
":X c #9CA8AA",
">X c #9DA9AD",
",X c #8EA8B6",
"<X c #97A6B3",
"1X c #94AAB3",
"2X c #9CABB3",
"3X c #9CAEBA",
"4X c #9CB3BA",
"5X c #A2A4A5",
"6X c #A7A7A4",
"7X c #A3A6AA",
"8X c #A3AAAD",
"9X c #AAACAD",
"0X c #B0B3AB",
"qX c #A4ADB2",
"wX c #A2AAB7",
"eX c #AAADB2",
"rX c #A4B2B5",
"tX c #ABB2B5",
"yX c #A4B4BB",
"uX c #ABB5BB",
"iX c #AAB9BA",
"pX c #ADB9BD",
"aX c #B2B4B4",
"sX c #B2B5BB",
"dX c #B4BBBD",
"fX c #B9BDB9",
"gX c #CDB9BB",
"hX c #BAC1B8",
"jX c #C9C9BC",
"kX c #9BB4C3",
"lX c #A8B8C3",
"zX c #ACBBC3",
"xX c #B3BDC3",
"cX c #B7BDC7",
"vX c #B0BFD1",
"bX c #ACC2CA",
"nX c #B4C1C5",
"mX c #BBC2C4",
"MX c #B5C3CA",
"NX c #BBC4CB",
"BX c #B7C8CA",
"VX c #BDC9CD",
"CX c #A6C7D1",
"ZX c #BBC7D3",
"AX c #BCCAD2",
"SX c #BDD3DA",
"DX c #C2C8CA",
"FX c #C2CCD3",
"GX c #C4CBD7",
"HX c #C7D3D9",
"JX c #D6DBDC",
"KX c #CDDAE3",
"LX c #D1DBE4",
"PX c #D7E1E6",
"IX c #DBEAF4",
"UX c #E3EBEA",
/* pixels */
"B 7 D.<.B.j.V #XZXpX&.n.bXX & * =.wXxXGXcXo o   KXP.DXG.AXVXMX~ # DX<XcXp.%X .2X8.mXMX<X$.uXs.D <.3.4 4 rXT r.Y D *X2X*X .m D .X",
"V p.q 3.B.E oX# p.a.HX7.  ; - 0.uXNXNXGXMXLXzX  c kX/.*.AXBXVXd.1Xe.k 3.pX1.zXa.I.K VX| q.zXwXv +.rX:Xa K U -XP K >X4Xb.T ;X7.. ",
"..&.D $.3.;XZ.j i.o     O - t.sXNXNXNXZXNX XFX:.-XlXyXxXM.BX1XCX&.H.j.z.H.2.s.I.a.{.nXsXVXf.cXSX<.f.V >X0 (.U.e Y M.M.X.9X^.^.X.",
"#Xh.G S S ` w.O X     + [ ^.Y d.cXGXMXkXVXS 0XFXVXD $XAX4.GX2XlXS.AXd.Z.BXMXpXU.bXt.`.j.2XSXI I N yX3. .O.*X-XR yXrXw.T b.(.V B ",
"5X;X+.N C $.d r.* 8 # 8.5XlXq I.rXAXU.P P.D.j 4XXXnXoXL.&XbXxX<XyXA.A.H.N.-XBXAXCXlX`.xXHX<.<.&.iXp.z., O.E -X2X&XtX&.lX] -.oXF.",
"/ wXqX;X>Xq.. *Xx #XA 5.sXcXMX_.FXY.&.,.hXMX;XnXD _.2Xs.I.iXnX1X5.,XL.lXM.%XAXlXMXSXE.8X<.n hXX B z.M.H.< <.F.4X2X6.s...+.w.f.Q.",
"@ ` #XqXB 8.w././ fXq x.iXnX-XMXMX,.a.i.1.cXnXFXa.&XZXnXnX1X2XFXH.L.-XlXp.~ 1XBX&XN.MX8 nX  = bXw 4.&XG.! , 4.yX6.+.f.2.+X;XXXQ.",
"2.o.vXu R - ;Xr.lXo OX7 Z.MXNXyXj.P.; cXHXjXMXdXG ZXxXcXnXG.SX6.j.,..X,.p.a.d.KXj.oX  i.* : FXR T i <.5.j.G q -XlXe tXqX/.w.*X X",
"yXQ.yXU W.v.M.V.X._ 7 D D.VXrXlXvX  @.FXv j VXNX XH.s.w.BXnXI lXz.R &XH.-X,X! KXW nXj.h g j Q.w 1X6 , .X&XQ 4 W j.yXtXqX5.S 0 _.",
"8X;X ...: qXtXuXG q.lX&.D.nX+.AXO q B l.wX).VXS oXT .XXXF.G.V yXX.N E 1X4Xd.,.OXyXe K.tX} AXI +XbX<., 6.A.s.i 0 q - rXqX+Xv ;X&X",
"-XrXf.T.&.h.R.wXuXx.(.G z.c.VXO #XfXaXQ VXm.f.&XqXyXx.%.SXoXzXZXzXQ F %X,X~ d.I ( ^ m.&XpXT yX&XuX~ C w ,.3.d.F.-X;X_.-XXXX.(.M.",
"5.T v.. w V G G 9Xg.q x.2XDX8 mX9.V.sX4.hXCXyX<.wXf.$X-.<.2XHXxXMXf.a.a.1X.X4XMXyXN.m.SXpXX.nXpXzXyXv b V 4.s.-.< H.yX&.XXI W -X",
"& # s o.j.*.E x.E.-XlXh.DXVX+X/.| lX#.XXo K.hXI ;XD *XF.J.FXAXoXMXGX,Xa.A.%XNXh nX-XG.DX4.w.x.nXi pXzXp.C o.<.*Xa.F 5. X&Xq I m ",
"s.$Xb.U.~.oXG x.@ ) 2.jXdX] $.xX1.xX;XS.N KX9.S.+.S.$X^.VXbXVXF j.AXSXMXU.OX@ :.pXzXMX`.q B.rX+.3 N lXlXbXO.iX; P.Q z.qXE N <.N ",
"6.G.$XoXG.5.b.G.R.4.DXV.5.$X~.r.DXsXmXmXyXVX| l.F m F.tXd.bXVX4.s.&XAXlXU.PX@ .XzXPXhX>.i.[ 6.xXK T 4.zXI V X H.1XD m z./ 7XR.X ",
"6.+.S.H.f.2.c.V.+.DXG D eXcXf._.cXNXNXNXzXxXZXlXS.o.VX%.sXHXAXlXAXzXyXlXAXt z.j.MXNXN 1X} 9X&XnXpX&X1X .R zX& U.A.Q P.2Xw t / A ",
"5.G R O.1.+X` qXpXm DXcX| Q.hXBXAXNXDXJ.s.NX$XxX5.C f.! KXnXnXZXMXzXd.z.& H.,.d.BXL z.4Xc z =XyXpXMXM.! &XX F F bXF.U.K , W v S.",
"k.s.W +.G ..S 9X1.~.2.cXFXVX^ U.DXAXFXXX(.nXuX2XzXG.,XcXxXt. .FXJ.d.4XVXj.Q F T zXyX(.uX' x { *XqXx.3.-XdXK ~ 3.A.a.bX4XQ q H.U.",
"2XG.w.$. .l.w.[ B.R 5.MXcX .K.4.AXHXFXnXPX X+.j.NXcXnXHXMXNXNX(.GXz.AX@ U.zX4X2XZXG.BXT ^ R.O W.M pX$.xXj zXMXn.,.<.d kXm 7 3.Z.",
"+XqXlXG.eX0.E ..j.N k.f.NXDXXXNXXXL.I.NXNXoXvXMXX.V.FXNX1.nX+.xXz.I E.z.a.M.B.tXAXBXhXS V uX9 * `.i 0 X 2 zXZ.,XP 4XT hXP 6 O.d.",
"1X7XeXeX).8XV Q.! h.m  XNXNX*XDXP.zXOX5.ZXP.NXNX+.o.NXAXtXcXDXy.<XcXb.Z.Z.ZX. lXBXAX/.8XFXX.;.M.k [.qXf +.VXBX~ Q ) H.lXp.v w ,.",
"w.tXG eXtXL l..XG.K R J.cXVXNXFX5.1.xX7.FXV wXFX2XoXwXxX/.lXVXAX[.X 3.%.AXO Q FXtXiX/.x.pXW yX8.zXx : xXAXJ.ZXF.yX+.I lXlX%.F d.",
"uXS 9.zX$X*.eXb.-Xw.D J.DX#X#XIXS.fXX o ~ ZX,XVXJXSX<XMX! -XcX2Xs.d.C mX9 Q zXnX .zXpXpXs.V iXpXx uXzXVXAXbXb Q ^.zX&XlXzX1X3.p.",
"2X` *.cXzXo.gXoXG.qXR 5.HXkX| DXX z sX- HXLXoXZXFXGXHXbXP.MX2Xn.U.x.7.6.BXx.q.sXwXzXpXuXXX2Xi yX<X> =X2X1XZXL.1XrXMXN.4XI R &.F ",
"XXqXtX/.v.+.p OXf.E &.+.%.mXO g ( 8XZ dX# & UXGX1XBXHXlXwX( l.s.VX* S.Z.z.OXU.rXsXxXxXuXyX' i yX2XZ o :X/.bXP VXXXbXV P 4.q 4XL ",
"(.qXtX_.oX&.G ~.;Xh.q.cX- : g k eXcXr.>.X * O * - HXLXn.GXlXHXxX[.pXz.z.MXJX^.KXnXuXxXxXL.-.G.ZXA.V & + `.A T o s.+.C  .lXr O yX",
"+.5.XXuX#.j h.x. XoXDXO * g x eX9.] G _ } : 8.g ; O j { fXVXPXHXoX! n.NXO a xXV +XxXlXxXlXA.o.ZXA.b 6 X X R.`.r tXo.VXa : ( F.NX",
"t { y.aX} r ..~.xXj . o k 8 DXsX(.0.fXt.tX< 0Xo t c - z `.DX! z.g.KX7.h } B FXoX*.LXZ.H.&XVX%.2Xb n ! w t xXo 9.rXJXX * R.zXz.1 ",
"kXcXsXMXB 3  .JX. X - x e.aXeXaX+.#XmXx.xXU PX% & } c c W._ oXFXPXh x T.lX..v.3XHXX.^ ,XAXyX-X$.v 7 F.,.2XH.XXF.o.+ < D k.lXP & ",
"1.R.xX1.@.mXo = o # #.H uXxXsXeXK tXp uX;Xb.; p & E.i.{ z DXUXr g 8.9.xX@.mXb.yX(.wX^ ^ ~.yX$Xq.O.&XU.Z.AXG.&XrXq H.F v +.b 8X7.",
"| Z ] 5 fXo : o { 1 b.aXsXsXaXsXJX:.7XfXw +.d $XK 7X5X[.t.X   - @XaXVX<.yXsX| J.BXuXlXK.T ;Xr.C nX(.A.a.AX X4.Z.XXU..X%.! B.t.E ",
"dX:.lXf # * g { u ^.cXdXsXdXxXsX2.>Xe.!.3XVX+XcXJ -.xXtX^.x # eXzXNXAXAXHXQ.$XxX .+XrXrXyX6.j.,.nXF.d.U 3.O.b V N.L.&X%.s.p.8 A ",
"fXfXr X - - 8.[.V GXy aXVXfXsXtXtXaXfX1 :XcXyX:.U.n ` L W y.GX^.sXNXVXNXcX~.uXdXC X.VXpXrXzXxXz.r.~ F VXL.xXs.s.7 S.U.zXH.2.& +.",
"o :   + # ' #XsXo.k ` cXFXcXuX>XrXXXt.h.qXDXqXpXn e nXq B.r rXm.$XGXBXs.NX(.ZX].N GXZ yXuXzXyXBX+.v %XGXXXMXO.o.R v ,.%XO.AX& 6 ",
"X : ( L i 5.eXG P.B.oXm R.X.yXI 4.HXeX..2 o yXpXrXnX#.eX;X3 m.^ KXbXMXSXzX$ c.JX..+XpXX.s.z.s.+.B.H.&X! AX2XnXz.d.P D l.N < +.n.",
"d p b.] m b sX XE G 5Xc.Q., pXC J 8XpXeXDX=X;XpXM.=Xb.LX3 rXY CXAXF.m.&XU V.e.yXK ;X$.f.Z.w b s.HXdXVXB.HX2.NXMXlXg.n.p.i X 6.3.",
"0 q.x.2XS *.V. XXX+.% b.cX` cX-.w.tXG.aXs ).2XAX6X2.sXs zXpX .d.SXNXA.uXS c.NX_.XX_.4.6.q o.Z.%.U.VXlX4 SXVX:.zXMXlXZX3.iXX ! 7 ",
", 7X2.o.E b.0.Q.z.;XL mX*.rXS fXiXqXiX9XsX4 (.nXL 9.r.w.tXtXnX4X(.xXD wXy b.y Y rX0 f.q F.<.F.D S.VXD.x.XXNXF ! cXlXlXV 7X% m p.",
"6X9X6X6X0XaX0.'.+XO.7 A x.` lXcXsXrXqX' >.R.=XFXJ.` w.4.` zXNXj.GXV.LX9.tX@.qXb.:X.XwXU.1XW L.,.XXcXl.xX).VX1X` bX2Xo.F r p B +.",
"X.@...!.9XeX5X#.h.J.<XT.*.lX<XVXnX_.k.2 Z s p :.OX(.b.f.x.(.NXFXG.o.-Xw qX:XtXxX9._.2XXXR yX&X,Xj.Q.9X+.pXBXnXNXJ.(.o.<.* ` w 7 ",
"[.5X5X7X9X] E.5 f.S.+.h.sX+.ZX$X<XB.u , 0 <.+XuX;Xx.w 0 n OXNXBXPXV iXN f.x.@.uXNXH.2XyXZ..XJ.bX6.L.t.9XxX>XNXnXNXXX&.cXj S.7 6 ",
"t.+X@XeX6XX.[.< m <.<.5.d T wXNXf.L.I X. .0 k.dXB.1.V.<.o.I nXVXPXBX+XB.j.<.6. XMX2.(.1X1XN.kXF ^ 4.d g E.7X$.sXyXD D.u [ $X3.m ",
"0.@X[.5X6X] ).Z i V <.8XT.Q.2.q.s.E x.:.C.#.c.7X9...-Xf.p.! 4.f.j.PXq.B.b.q <.*.G.nXU.z.Q o.R Q v qX& h g = =X_ :X<.E : h.-X<X7 ",
"Z #X#X7X@X@.1 M I 0 w *.#.sX..l.5 l.-XQ.9.*.X.L 9XU..XL.4X! z.HXBX( b.F.c.+.f.F s.nXz.,.Q l.~ V 2XeX[.0.  o X E.#XZ :X: @ m <XkX",
"v.#X7X7X6X/ M ' i C E w.) t.x.b.XX/.oX*X' pXZ L @.R L.uXl.1.VXsX0.tX..yXJ.G.O.<.D MXo.-. X[.9XqXR.B 5 p r   - * y.!.8.t 3 D.;Xx.",
") r.#X6X7X`.B Q.XX1.q.<X$.j +XD.oXoX, Q.w.1 p rX).FXuXdX/.v.9.dXt ..w _.B k.-Xj.2.].}.8X#XA e.2.q.Z V.;Xh.d # - h   h ( b.F f.x.",
"Q.c.B eX7X6XS Q.uXqXQ.G pXQ.cXR.qX7X_.*XeXeXaX1.B p $X9.r.V.% 2Xs S V F.(.^.9X`.9.s >.r ) 9.9.k.:.k.qXb.u _ d =   k k } oX-X1X3X",
"qXe ) v.5X[ ( F qXvX+X` aX` v.aXaXqX1.q.i +.5 ` p U ).8XqX<X7X_ dXe x.m 0 [.R.$ y @ _ ;.B 2 r.c.h.` q.uXp *.V.( g = k 8.XXZ.T -X",
"+Xa a eX[.E.] #XlX#XxXsXsX!.!.9.m h...` j.X.=X8Xr.qXc.0.7.2.qXX.F.f.G.w <.W.& ].).L c.R.@.9 c.w.k...2.>X;X).T t.} ( c =._.*XXXQ.",
"J.$. .+X7X|.y.!.$XH oX#.A s V.L >.S c.G.q.f.V.wXL ~.U f $XtXtX_ N >.uXj.i W.0X_.) :X] ].) y r.@ Z , lXqX].G.C.c.q.@.H _ _ ) M 5 ",
"] #X@X'.5X`.R.8 '._ S cX~.i _.@X:.p (.w.k.5.1.$Xy Q.aXsX^.0XdXhXXXMXnX5.C 6X_.:X_.^._.R.' & j.@ XX0 _ < < 4 R.B.t.1 A S E ` i p ",
"s @X@XR.[.0.E.] `._ uXeXrX8Xw.8X9.B V.r.w.5.x.8X*X=XaX0.].aX6X6X0X[.qXnXj.y.6X7X].T.].^.G.` $.7.[ | M ..$.h.9...T _ B / @.W ) 0.",
"=X5X#X5X5Xs E.A >.V.&Xr.#XtXtX^.@.9 b.S p V 5.8X8XM.fXs t.e.' a e.A !.5X6X{.:X*Xf r W.y.u 0 2.r.B.X.h.B.h.(.C.XXq.` % ' 1.$.G A ",
"] @.>.) [.s E.0.r.R.2XeX9X8XrX .V 0 J.W u 2 5.>XqXL.aXr t.0X( a R./ # ] 7.0.s e.R.t.9 *Xt.@ 2.<.:.7 2XB.Q.M.w.b.k.) < ` 2.+.< B ",
"X.9.U Z 7.B W.Q.` ).qXeX_.C tXr...7 f.B.6 B F.uXiXlXfX>.mX:X@X^.#.R.] #.7.7.[.2.;.% 9 '.@.'.Q.`.T.V.uX*X+X].).G.~.U 1 ` % ` < p ",
"] 4 i 5 0 p {.[.U '.qXy 5 i qX2.q.5.7 OX<.i F.uXfXhX6X5Xf ' nXG.].7.3 t.|.#.>.2 & ].Q.*X] % L 7.p E.-X$X*XM 2 _.B.y A X.$ 1.% B ",
"Z w._ u B U E.].$.).eXy T S wX1...0 q H. .w x.eX0X0X;.y *X9X=X=X7X[ [.;./ s 1 `.c.'.].L K ^.9 r.@.R.XX=X$X. v.^.q.3 , L ;XQ.(.Q.",
">.V.@.9.u >.K q S @XqX8X| rXtX2.G b 4.z.k.V.0X5Xf _ R.% ].Z 7XT.|.[ u $ u t.4 V #.*X*X$.[ < v.G.R.E.*X'.v./ / e.t.#.{ [ 0.8.8.t.",
"m V.X.#.4 $.X u , 5XqXtX;Xf.J.pX0 ! ;XW.`.t.t #.0.eX_.'.[.mX8Xs , y y :X>.;Xs e.^.qX#X;X=XR.`.[.W.`.W.i.i.y.i.y.i.8.y.T.T.T.0.7.",
"1.k.h./ R.#.X 2 U 7X).tXrX(.iXtXW [.[.[ f 3 f 7.+X5XNXNXfXy >.>.2._ 9.f ` Q.;X'.].@X*X>X=X3 ..) u ) 3 / / & 8 & & r 9 r 8 d f _ ",
">.9.[ _ #./ < 0 *X5X8XtXtX5.aX[.[.A / 3 . T.% #.7XsXtX, Z 1.1.t.L X.L tXi tX].V.].#X+X_.+X7.2 *XK % _ A d / s / / ( ( #.[ 0.t.t.",
"B ' U #X] ) 3 I *X7XxX2XL 6X[.7.7.& & T.[ R.v.tXtXq.0 _ y 0 Q.c.w.1.:.:X^.!.l a (.].=X_.$XZ / R.c.A % #.[ / / / ( [ v.7.t._ ' _ ",
"..$ p 3 ' / X.*X*X6XL |.7XM #.) @.[ #.' `.DXV.m 1.| wXh.$.U w.9.C.C  ._.].K T K T [.=X*X@ :.@._.T._ s 7./ ( A d f A s f k v.H t.",
"1 / 3 p A V *X;X5X5X!.#.p / p t.t.' H T.aXy e.m DX*.].+X1.9 C., $ 0 ' ;X/.' ^ Y T *X_.].) ^.].!.U $ 3 0.[ 7.L [ t.% 1 5 E v.!.h."
};
